<svg xmlns="http://www.w3.org/2000/svg" viewBox="0 0 128 128" role="img" aria-label="RusticDL">
  <!-- Approximate mark; PNG masters from Imagine are authoritative. -->
  <rect width="128" height="128" fill="#171717"/>
  <!-- Download arrow -->
  <path fill="#fafafa" d="M58 14h12v28l14-14 8.5 8.5L64 62 35.5 36.5 44 28l14 14V14z"/>
  <!-- Crab body + claws (simplified) -->
  <ellipse cx="64" cy="88" rx="28" ry="22" fill="#fafafa"/>
  <circle cx="52" cy="78" r="4" fill="#171717"/>
  <circle cx="76" cy="78" r="4" fill="#171717"/>
  <path fill="#fafafa" d="M28 70c-10 4-14 18-6 26 6-2 12-8 14-16-4-2-6-6-8-10zm72 0c10 4 14 18 6 26-6-2-12-8-14-16 4-2 6-6 8-10z"/>
  <ellipse cx="40" cy="108" rx="5" ry="3" fill="#fafafa"/>
  <ellipse cx="52" cy="112" rx="5" ry="3" fill="#fafafa"/>
  <ellipse cx="76" cy="112" rx="5" ry="3" fill="#fafafa"/>
  <ellipse cx="88" cy="108" rx="5" ry="3" fill="#fafafa"/>
</svg>
